<?xml version="1.0" standalone="no"?>
<!DOCTYPE svg PUBLIC "-//W3C//DTD SVG 20010904//EN"
 "http://www.w3.org/TR/2001/REC-SVG-20010904/DTD/svg10.dtd">
<svg version="1.0" xmlns="http://www.w3.org/2000/svg"
 width="560.000000pt" height="560.000000pt" viewBox="0 0 560.000000 560.000000"
 preserveAspectRatio="xMidYMid meet">

<g transform="translate(0.000000,560.000000) scale(0.100000,-0.100000)"
fill="#000000" stroke="none">
<path d="M2559 3945 c-75 -13 -151 -28 -170 -32 l-34 -9 -3 -276 -2 -276 -88
-11 c-48 -7 -97 -14 -109 -17 l-23 -4 0 -315 0 -315 23 -4 c21 -5 176 -16 695
-52 l242 -17 155 73 155 73 0 297 c0 217 -3 299 -12 308 -8 8 -47 12 -110 12
l-98 0 0 278 c0 152 -4 283 -9 291 -7 12 -55 15 -243 17 -210 3 -247 1 -369
-21z m331 -35 c-18 -11 -134 -11 -170 0 -16 5 12 8 80 9 71 0 100 -2 90 -9z
m220 -17 c0 -21 -83 -343 -89 -343 -6 0 -122 302 -118 307 4 4 169 40 190 42
9 0 17 -2 17 -6z m-407 -40 l137 -6 0 -295 0 -294 -31 6 c-17 3 -101 15 -187
26 -87 12 -170 24 -187 29 l-30 7 -3 267 -2 267 83 0 c46 0 145 -3 220 -7z
m240 -278 c-1 -16 -12 -59 -26 -95 l-26 -65 1 150 0 150 26 -55 c14 -30 25
-68 25 -85z m185 -22 l-3 -58 -18 34 c-20 35 -18 63 6 146 l12 40 3 -52 c2
-29 2 -78 0 -110z m-132 -95 c13 -43 50 -52 60 -14 3 14 9 26 13 26 8 0 41
-65 41 -80 0 -11 -178 -103 -190 -98 -9 3 50 198 60 198 4 0 11 -15 16 -32z
m334 -161 c0 -16 -68 -316 -76 -337 -3 -9 -32 52 -69 145 l-63 160 86 22 c104
26 122 27 122 10z m-745 -52 c289 -41 284 -41 343 -11 30 15 68 26 92 26 l40
0 0 -296 0 -296 -62 6 c-96 9 -452 36 -643 49 l-170 12 -3 268 -2 267 117 0
c72 0 185 -10 288 -25z m575 -221 c11 -37 10 -50 -10 -110 -12 -38 -26 -73
-31 -79 -5 -5 -9 57 -9 145 l1 155 18 -35 c10 -19 24 -54 31 -76z m189 -1 c-1
-74 -1 -76 -14 -47 -10 23 -11 41 -3 77 5 26 12 47 14 47 2 0 4 -35 3 -77z
m-92 -203 c13 0 21 15 38 65 6 17 10 13 25 -25 11 -25 19 -50 19 -55 1 -10
-87 -58 -168 -92 l-33 -14 6 28 c4 15 19 61 34 102 l26 74 20 -41 c11 -23 26
-42 33 -42z"/>
<path d="M2430 3775 c0 -63 -5 -60 126 -70 91 -7 94 -5 94 76 l0 36 -77 7
c-42 3 -91 6 -110 6 l-33 0 0 -55z"/>
<path d="M2230 3171 l0 -61 38 0 c20 0 67 -3 105 -7 l67 -6 0 62 0 61 -37 0
c-21 0 -68 3 -105 7 l-68 6 0 -62z"/>
<path d="M573 2266 c-152 -50 -255 -204 -239 -360 18 -180 159 -307 340 -307
111 0 209 46 270 125 137 180 76 427 -129 526 -60 29 -178 37 -242 16z m201
-80 c95 -40 166 -147 166 -251 0 -75 -24 -130 -83 -189 -47 -46 -118 -76 -182
-76 -54 0 -129 28 -172 65 -146 125 -114 358 60 444 50 25 159 29 211 7z"/>
<path d="M2086 2254 c-3 -9 -6 -69 -6 -135 0 -65 -4 -119 -9 -119 -5 0 -14 7
-22 16 -52 63 -185 72 -261 18 -88 -62 -122 -189 -78 -292 26 -61 82 -114 139
-130 52 -16 283 -16 299 0 17 17 17 629 0 646 -17 17 -55 15 -62 -4z m-86
-273 c105 -55 106 -230 2 -289 -79 -44 -180 -13 -216 67 -24 52 -18 136 12
178 43 61 134 81 202 44z"/>
<path d="M5033 2213 c-10 -3 -13 -63 -13 -249 0 -224 2 -248 20 -283 32 -64
137 -103 174 -65 30 30 12 64 -35 64 -14 0 -38 9 -53 21 -26 20 -26 22 -26
154 l0 134 53 3 c48 3 52 5 52 28 0 23 -4 25 -52 28 l-53 3 0 65 c0 91 -18
117 -67 97z"/>
<path d="M1252 2058 c-9 -9 -12 -73 -12 -225 l0 -213 25 -12 c19 -8 28 -8 40
2 12 10 15 40 15 165 0 150 1 154 26 184 28 33 65 44 154 45 46 1 55 4 58 20
13 63 -148 62 -220 -2 -16 -14 -18 -13 -18 4 0 24 -18 44 -40 44 -9 0 -21 -5
-28 -12z"/>
<path d="M2515 2051 c-82 -38 -128 -116 -128 -216 1 -110 66 -199 168 -226 89
-24 235 17 235 66 0 34 -31 40 -77 15 -77 -41 -183 -19 -229 49 -47 70 -46 70
152 73 206 3 203 2 184 92 -13 66 -63 130 -117 153 -46 19 -140 16 -188 -6z
m167 -63 c31 -12 68 -64 68 -97 0 -20 -4 -21 -145 -21 -99 0 -145 4 -145 11 0
23 34 81 57 96 49 32 104 36 165 11z"/>
<path d="M3042 2058 c-9 -9 -12 -73 -12 -225 l0 -213 25 -12 c19 -8 28 -8 40
2 12 10 15 40 15 165 0 150 1 154 26 184 28 33 65 44 154 45 46 1 55 4 58 20
13 63 -148 62 -220 -2 -16 -14 -18 -13 -18 4 0 24 -18 44 -40 44 -9 0 -21 -5
-28 -12z"/>
<path d="M3604 2051 c-23 -10 -49 -29 -58 -42 -33 -48 -12 -129 43 -162 14 -8
61 -24 104 -35 85 -22 117 -43 117 -77 0 -57 -103 -84 -181 -46 -24 11 -52 26
-61 33 -21 15 -51 1 -56 -26 -14 -69 189 -123 291 -78 79 35 108 112 67 179
-24 39 -41 49 -135 73 -87 22 -111 34 -125 60 -22 41 19 70 99 70 35 0 58 -7
86 -26 41 -27 62 -28 79 -2 8 13 6 22 -9 39 -52 57 -179 77 -261 40z"/>
<path d="M4116 2054 c-14 -13 -16 -47 -16 -219 0 -172 2 -206 16 -219 8 -9 21
-16 28 -16 32 0 36 23 36 241 0 189 -2 218 -16 223 -24 9 -31 8 -48 -10z"/>
<path d="M4502 2049 c-117 -58 -89 -184 50 -223 35 -10 78 -23 95 -28 18 -5
41 -20 52 -34 64 -81 -98 -129 -199 -59 -35 24 -44 26 -65 17 -55 -25 -15 -79
78 -107 147 -44 277 14 277 122 0 68 -40 103 -150 132 -103 27 -130 43 -130
76 0 57 111 76 185 30 62 -38 94 -30 81 20 -4 15 -23 32 -58 49 -67 34 -154
36 -216 5z"/>
</g>
</svg>
